<svg width="130" height="65" viewBox="0 0 130 65" fill="none" xmlns="http://www.w3.org/2000/svg">
<path fill-rule="evenodd" clip-rule="evenodd" d="M123.576 36.4295C118.861 35.603 116.506 32.9228 116.506 28.3871V19.0477C116.506 14.9737 114.104 12.8732 109.302 12.7463V8.34802C113.195 8.34802 116.255 9.26786 118.483 11.104C120.203 12.5161 121.26 14.3426 121.655 16.5834H118.618V19.9667H121.831V28.3871C121.831 30.4311 122.454 31.936 123.703 32.8981C124.949 33.8567 126.948 34.3572 129.699 34.3995V38.8612C127.118 38.8612 125.161 39.3317 123.83 40.2709C122.497 41.2119 121.831 42.7785 121.831 44.9723V54.5654C121.831 57.7936 120.747 60.31 118.582 62.1144C116.416 63.9188 113.322 64.8422 109.302 64.8845V60.4509C111.65 60.4086 113.437 59.9012 114.662 58.9285C115.891 57.9593 116.506 56.3998 116.506 54.2482V44.8454C116.506 42.4401 117.087 40.6057 118.25 39.3405C119.412 38.0718 121.188 37.226 123.576 36.803V36.4295ZM114.549 10.4934H116.923V12.8617H114.549V10.4934Z" fill="#FF6900"/>
<mask id="mask0_4_6" style="mask-type:luminance" maskUnits="userSpaceOnUse" x="115" y="2" width="6" height="6">
<path d="M115.584 2.38742H120.343V7.127H115.584V2.38742Z" fill="white"/>
</mask>
<g mask="url(#mask0_4_6)">
<path d="M115.584 2.38742H120.354V7.127H115.584V2.38742Z" fill="#FF6900"/>
</g>
<mask id="mask1_4_6" style="mask-type:luminance" maskUnits="userSpaceOnUse" x="124" y="8" width="4" height="5">
<path d="M124.508 8.97665H127.907V12.3621H124.508V8.97665Z" fill="white"/>
</mask>
<g mask="url(#mask1_4_6)">
<path d="M124.508 8.97665H127.907V12.3657H124.508V8.97665Z" fill="#FF6900"/>
</g>
<mask id="mask2_4_6" style="mask-type:luminance" maskUnits="userSpaceOnUse" x="123" y="4" width="3" height="3">
<path d="M123.336 4.68845H125.375V6.7197H123.336V4.68845Z" fill="white"/>
</mask>
<g mask="url(#mask2_4_6)">
<path d="M123.336 4.68845H125.375V6.72133H123.336V4.68845Z" fill="#FF6900"/>
</g>
<mask id="mask3_4_6" style="mask-type:luminance" maskUnits="userSpaceOnUse" x="128" y="0" width="2" height="2">
<path d="M128.3 0H130V1.69271H128.3V0Z" fill="white"/>
</mask>
<g mask="url(#mask3_4_6)">
<path d="M128.3 0H130V1.69271H128.3V0Z" fill="#FF6900"/>
</g>
<path d="M20.3972 51.6992V43.3345H28.8888V51.6992H20.3972Z" fill="white"/>
<path d="M59.491 46.685L66.2914 39.9956V34.9815H56.0848L50.9875 39.9956V41.6709L56.0848 46.685H59.491ZM54.3936 51.6992L45.8901 43.3345V38.3204L54.3936 29.9674H66.2914V26.6168L61.1822 21.6027H56.0848L49.2844 28.2921L45.8901 24.9416L54.3936 16.5886H62.8853L71.3887 24.9416V51.6992H66.2914V46.685L61.1822 51.6992H54.3936Z" fill="white"/>
<path d="M88.3902 61.7275L84.9841 60.0638L90.0814 50.0239L79.8867 29.9674V16.5886H84.9841V29.9674L92.636 45.0098L100.288 29.9674V16.5886H105.385V29.9674L89.2299 61.7275H88.3902Z" fill="white"/>
<path d="M13.1114 54.3637C13.1114 56.5153 13.7286 58.0748 14.9664 59.0439C16.2024 60.0166 18.0133 60.5241 20.3972 60.5664V65C16.3858 64.9577 13.2825 64.0378 11.0873 62.244C8.89025 60.4536 7.79352 57.932 7.79352 54.6809V45.0878C7.79352 42.8939 7.12701 41.3274 5.79753 40.3864C4.46629 39.4472 2.53378 38.9767 0 38.9767V34.515C2.74536 34.4727 4.72901 33.9687 5.9527 32.9995C7.17991 32.0268 7.79352 30.529 7.79352 28.5025V18.8108C7.79352 15.5403 8.93257 12.9992 11.2142 11.1842C13.4941 9.371 16.5551 8.4635 20.3972 8.4635V12.8618C15.5394 12.9887 13.1114 15.0891 13.1114 19.1632V28.5025C13.1114 33.0383 10.7575 35.7185 6.05144 36.5449V36.9185C10.7575 37.7467 13.1114 40.4269 13.1114 44.9609V54.3637Z" fill="white"/>
</svg>